<?xml version="1.0" encoding="UTF-8" standalone="no"?>
<svg
   xmlns:dc="http://purl.org/dc/elements/1.1/"
   xmlns:cc="http://creativecommons.org/ns#"
   xmlns:rdf="http://www.w3.org/1999/02/22-rdf-syntax-ns#"
   xmlns:svg="http://www.w3.org/2000/svg"
   xmlns="http://www.w3.org/2000/svg"
   xmlns:sodipodi="http://sodipodi.sourceforge.net/DTD/sodipodi-0.dtd"
   xmlns:inkscape="http://www.inkscape.org/namespaces/inkscape"
   viewBox="0 0 24 24"
   version="1.1"
   id="svg4"
   sodipodi:docname="app.svg"
   inkscape:version="0.92.4 (5da689c313, 2019-01-14)"
   inkscape:export-filename="C:\inetpub\www\packages\fleetio-barcode-inventory-extension\public\icon\128.png"
   inkscape:export-xdpi="512"
   inkscape:export-ydpi="512">
  <metadata
     id="metadata10">
    <rdf:RDF>
      <cc:Work
         rdf:about="">
        <dc:format>image/svg+xml</dc:format>
        <dc:type
           rdf:resource="http://purl.org/dc/dcmitype/StillImage" />
        <dc:title></dc:title>
      </cc:Work>
    </rdf:RDF>
  </metadata>
  <defs
     id="defs8" />
  <sodipodi:namedview
     pagecolor="#ffffff"
     bordercolor="#666666"
     borderopacity="1"
     objecttolerance="10"
     gridtolerance="10"
     guidetolerance="10"
     inkscape:pageopacity="0"
     inkscape:pageshadow="2"
     inkscape:window-width="1204"
     inkscape:window-height="973"
     id="namedview6"
     showgrid="false"
     showguides="false"
     inkscape:zoom="6.9532167"
     inkscape:cx="12.49793"
     inkscape:cy="15.089853"
     inkscape:window-x="1682"
     inkscape:window-y="320"
     inkscape:window-maximized="0"
     inkscape:current-layer="svg4" />
  <path
     d="M 4,6 H 6 V 18 H 4 V 6"
     id="path835"
     style="fill:#393939;fill-opacity:1" />
  <path
     d="M 7,6 H 8 V 18 H 7 V 6"
     id="path833"
     style="fill:#393939;fill-opacity:1" />
  <path
     d="m 9,6 h 3 V 18 H 9 V 6"
     id="path831"
     style="fill:#393939;fill-opacity:1" />
  <path
     d="m 13,6 h 1 V 18 H 13 V 6"
     id="path829"
     style="fill:#393939;fill-opacity:1" />
  <path
     d="m 16,6 h 2 V 18 H 16 V 6"
     id="path827"
     style="fill:#393939;fill-opacity:1" />
  <path
     d="m 19,6 h 1 V 18 H 19 V 6"
     id="path825"
     style="fill:#393939;fill-opacity:1" />
  <path
     d="M 2,4 V 8 H 0 V 4 A 2,2 0 0 1 2,2 H 6 V 4 H 2"
     id="path823"
     style="fill:#eb6363;fill-opacity:1" />
  <path
     d="m 22,2 a 2,2 0 0 1 2,2 V 8 H 22 V 4 H 18 V 2 h 4"
     id="path821"
     style="fill:#eb6363;fill-opacity:1" />
  <path
     d="m 2,16 v 4 h 4 v 2 H 2 A 2,2 0 0 1 0,20 v -4 h 2"
     id="path819"
     style="fill:#eb6363;fill-opacity:1" />
  <path
     d="m 22,20 v -4 h 2 v 4 a 2,2 0 0 1 -2,2 h -4 v -2 z"
     id="path2"
     style="fill:#eb6363;fill-opacity:1" />
</svg>
